<?xml version="1.0" standalone="no"?>
<!DOCTYPE svg PUBLIC "-//W3C//DTD SVG 20010904//EN"
 "http://www.w3.org/TR/2001/REC-SVG-20010904/DTD/svg10.dtd">
<svg version="1.0" xmlns="http://www.w3.org/2000/svg"
 width="1082.000000pt" height="1082.000000pt" viewBox="0 0 1082.000000 1082.000000"
 preserveAspectRatio="xMidYMid meet">
<metadata>
Created by potrace 1.14, written by Peter Selinger 2001-2017
</metadata>
<g transform="translate(0.000000,1082.000000) scale(0.100000,-0.100000)"
fill="#000000" stroke="none">
<path d="M4815 10809 c-36 -9 -172 -73 -185 -88 -3 -3 -32 -19 -65 -36 -33
-16 -62 -32 -65 -35 -3 -3 -25 -16 -50 -29 -25 -13 -52 -29 -60 -35 -8 -6 -37
-22 -65 -36 -27 -13 -52 -27 -55 -31 -3 -4 -32 -21 -65 -38 -33 -17 -67 -35
-75 -41 -19 -11 -135 -77 -215 -121 -33 -18 -78 -43 -100 -56 -22 -13 -52 -29
-67 -35 -16 -7 -28 -16 -28 -20 0 -4 -5 -8 -10 -8 -6 0 -70 -34 -141 -75 -72
-41 -132 -75 -134 -75 -2 0 -26 -13 -53 -29 -27 -16 -76 -44 -108 -62 -33 -18
-75 -41 -94 -52 -19 -11 -89 -50 -155 -87 -66 -37 -138 -78 -160 -90 -22 -13
-65 -37 -95 -53 -30 -16 -66 -37 -80 -46 -14 -9 -44 -26 -67 -36 -24 -11 -43
-23 -43 -27 0 -5 -5 -8 -11 -8 -6 0 -24 -9 -40 -21 -16 -11 -29 -18 -29 -15 0
12 -106 -67 -136 -101 -36 -40 -73 -109 -86 -162 -5 -20 -11 -45 -14 -56 -7
-22 -11 -550 -16 -1737 -2 -434 -6 -788 -10 -788 -4 0 -5 -6 -2 -13 7 -18 10
-127 4 -127 -3 0 -6 -597 -7 -1327 -1 -731 -4 -1879 -7 -2553 -4 -674 -7
-1291 -7 -1372 0 -81 2 -152 6 -158 3 -5 3 -10 -2 -10 -13 0 -8 -638 5 -684 6
-22 9 -43 7 -47 -3 -4 0 -9 6 -11 6 -2 12 -15 12 -30 1 -14 4 -25 6 -22 5 4
41 -36 41 -46 0 -19 152 -150 174 -150 2 0 17 -5 33 -12 32 -13 28 -12 73 -22
19 -5 69 -9 110 -10 42 -1 80 -5 86 -9 5 -3 16 -2 23 3 8 4 27 4 42 0 17 -5
31 -5 35 1 3 5 10 6 16 3 13 -8 155 -7 168 1 5 3 12 1 15 -5 5 -8 11 -7 21 1
8 6 25 9 39 7 13 -3 22 -1 19 3 -3 5 1 9 8 9 36 0 141 63 195 117 63 65 77 89
154 268 79 186 117 267 157 338 12 20 21 38 20 40 -1 3 230 481 478 985 90
183 164 335 164 338 0 3 9 19 21 35 11 16 18 29 14 29 -3 0 6 20 20 43 14 24
25 51 25 60 0 8 4 17 8 19 5 2 38 65 75 140 37 75 72 140 77 143 6 4 8 11 5
16 -4 5 3 22 14 38 12 16 21 36 21 45 0 9 5 16 11 16 5 0 8 4 5 9 -4 5 -1 11
6 13 6 2 13 15 15 28 2 13 7 27 12 30 5 3 11 15 15 28 4 13 12 19 18 16 8 -5
9 -1 5 10 -4 11 1 28 12 44 10 15 20 32 21 37 1 6 7 9 13 7 6 -2 5 4 -3 12 -7
9 -8 16 -2 16 5 0 17 17 27 38 48 104 59 127 65 132 4 3 10 15 14 28 4 12 12
19 18 16 7 -4 8 -2 4 5 -8 13 14 71 27 71 5 0 6 4 3 9 -3 5 3 19 13 32 10 13
21 36 25 52 3 15 11 27 16 27 6 0 10 7 10 15 0 8 4 15 10 15 5 0 7 6 4 14 -3
7 1 20 8 27 14 15 41 67 43 84 0 6 7 9 14 7 7 -1 10 2 7 7 -8 13 4 42 15 35 5
-3 6 2 3 10 -8 21 11 38 74 63 56 24 52 24 147 -17 194 -85 196 -85 290 -85
72 1 98 5 131 22 23 12 44 19 48 16 3 -4 6 -2 6 4 0 6 12 16 28 22 27 11 96
50 142 80 14 9 49 28 78 43 29 14 58 30 65 36 7 5 41 25 77 43 36 19 67 36 70
39 6 6 86 50 117 65 13 5 23 13 23 18 0 4 4 7 9 7 5 0 40 17 78 39 37 21 94
52 126 70 31 17 83 45 115 62 31 18 59 35 62 38 9 11 85 45 97 44 7 0 11 2 8
6 -2 4 22 21 53 37 31 16 59 32 60 37 2 4 8 5 13 1 5 -3 9 0 9 5 0 6 5 11 11
11 6 0 23 9 39 20 15 11 30 17 34 13 3 -3 6 -1 6 5 0 7 5 12 11 12 6 0 23 8
37 19 26 17 78 47 152 87 19 11 37 21 40 24 3 3 28 16 55 30 28 14 52 28 55
31 3 3 37 22 75 44 121 67 159 88 200 111 22 13 56 32 75 42 19 10 51 28 70
39 19 11 62 35 95 53 190 104 234 179 270 468 8 65 16 88 37 103 11 8 26 19
32 24 6 6 46 37 90 70 101 77 150 133 177 204 24 63 23 42 34 966 3 275 8 682
11 905 11 936 11 893 -9 956 -24 74 -63 130 -124 179 -26 22 -50 42 -53 45 -3
3 -25 21 -50 40 -75 58 -94 78 -96 102 0 13 -4 46 -8 73 -4 28 -9 63 -11 78
-11 79 -16 114 -21 132 -9 34 -39 95 -46 95 -5 0 -8 4 -8 10 0 26 -124 127
-183 149 -15 6 -27 16 -27 22 0 7 -3 10 -6 6 -4 -3 -29 9 -58 27 -28 18 -58
35 -66 39 -8 4 -28 16 -45 27 -16 11 -36 23 -44 26 -7 4 -76 45 -153 91 -77
45 -142 83 -144 83 -3 0 -10 5 -17 10 -12 10 -50 34 -347 207 -80 47 -153 92
-162 101 -10 8 -18 11 -18 7 0 -4 -8 -1 -17 7 -10 8 -45 30 -78 48 -33 19 -61
37 -63 42 -2 4 -8 8 -12 8 -5 0 -77 41 -159 90 -83 50 -156 90 -161 90 -6 0
-10 5 -10 10 0 6 -4 10 -9 10 -5 0 -71 37 -148 83 -185 112 -380 227 -422 250
-58 32 -119 46 -189 42 -70 -3 -81 -5 -147 -34 -177 -78 -212 -87 -261 -65
-21 9 -45 18 -53 20 -7 1 -18 7 -24 13 -6 6 -16 11 -23 11 -6 0 -38 12 -70 27
-33 15 -66 29 -74 30 -40 9 -129 10 -165 2z"/>
<path d="M2853 45 c0 -8 4 -12 9 -9 5 3 6 10 3 15 -9 13 -12 11 -12 -6z"/>
</g>
</svg>
